<svg width="43" height="41" viewBox="0 0 43 41" fill="none" xmlns="http://www.w3.org/2000/svg">
<path d="M0.633301 0.429688C2.61744 1.22431 4.69895 1.74999 6.82247 1.99274C9.51142 1.70282 13.5864 2.04316 15.0371 1.99274C31.2726 2.11022 33.2264 0.732213 38.7853 6.02641C43.5415 10.5542 42.9622 17.96 42.9869 24.968C43.0166 33.2209 42.9869 40.7664 42.9869 40.7664C42.9869 40.7664 35.5246 40.5784 27.0201 40.7664C19.7645 40.9273 11.7108 41.8086 6.73423 37.0691C2.34005 32.8841 2.78123 26.4469 2.72073 18.309C2.48829 13.0092 2.34307 4.01865 2.20038 3.21948C2.00908 2.1389 1.45656 1.15529 0.633301 0.429688Z" fill="#0011FF"/>
<path d="M5.8011 8.49707H2.01953V12.2786H5.8011V8.49707Z" fill="white"/>
<path d="M9.33113 4.96777H5.54956V8.74934H9.33113V4.96777Z" fill="white"/>
<path d="M12.8604 1.43774H9.07886V5.21931H12.8604V1.43774Z" fill="white"/>
<path d="M5.8011 4.96777H2.01953V8.74934H5.8011V4.96777Z" fill="#0011FF"/>
<path d="M5.8011 1.43774H2.01953V5.21931H5.8011V1.43774Z" fill="white"/>
<path d="M9.33113 1.56421H5.54956V5.34578H9.33113V1.56421Z" fill="#0011FF"/>
<path d="M4.41487 0.429688H0.633301V3.95915H4.41487V0.429688Z" fill="#0011FF"/>
<path d="M19.6587 23.3674C19.6587 21.1541 21.4529 19.3599 23.6662 19.3599V24.2261C23.6662 25.3328 22.7691 26.2299 21.6624 26.2299C20.5558 26.2299 19.6587 25.3328 19.6587 24.2261V23.3674Z" fill="white"/>
<path d="M24.2383 15.9247C24.2383 13.7115 26.0325 11.9172 28.2458 11.9172V23.3673C28.2458 25.5805 26.4516 27.3748 24.2383 27.3748V22.5085V15.9247Z" fill="white"/>
<path d="M18.626 19.3599C14.275 23.0239 16.8131 26.2299 18.626 27.3749H20.6298C16.9658 23.7109 19.1031 20.5049 20.6298 19.3599H18.626Z" fill="white"/>
<path d="M21.0898 27.6613L23.3798 26.5163C24.7792 30.9943 27.9846 25.7307 30.9092 22.7115C30.979 22.6276 31.0455 22.5593 31.1086 22.5088C31.0423 22.5751 30.9758 22.6427 30.9092 22.7115C29.3952 24.5304 26.2888 33.6811 21.0898 27.6613Z" fill="white"/>
<rect x="22.5205" y="19.9321" width="0.572501" height="0.572501" fill="#0011FF"/>
<rect x="21.9485" y="19.3596" width="0.572501" height="0.572501" fill="#0011FF"/>
<rect x="23.0935" y="19.3596" width="0.572501" height="0.572501" fill="#0011FF"/>
<rect x="21.9485" y="20.5049" width="0.572501" height="0.572501" fill="#0011FF"/>
<rect x="21.376" y="19.9321" width="0.572501" height="0.572501" fill="#0011FF"/>
<rect x="20.803" y="20.5049" width="0.572501" height="0.572501" fill="#0011FF"/>
<rect x="20.231" y="21.0771" width="0.572501" height="0.572501" fill="#0011FF"/>
<rect x="19.6584" y="21.6497" width="0.572501" height="0.572501" fill="#0011FF"/>
<rect x="19.6584" y="22.7947" width="0.572501" height="0.572501" fill="#0011FF"/>
<rect x="19.6584" y="23.9399" width="0.572501" height="0.572501" fill="#0011FF"/>
<rect x="20.231" y="24.5125" width="0.572501" height="0.572501" fill="#0011FF"/>
<rect x="20.803" y="25.085" width="0.572501" height="0.572501" fill="#0011FF"/>
<rect x="21.376" y="25.6572" width="0.572501" height="0.572501" fill="#0011FF"/>
<rect x="19.6584" y="25.085" width="0.572501" height="0.572501" fill="#0011FF"/>
<rect x="20.231" y="25.6572" width="0.572501" height="0.572501" fill="#0011FF"/>
<rect x="20.231" y="23.3669" width="0.572501" height="0.572501" fill="#0011FF"/>
<rect x="20.803" y="23.9399" width="0.572501" height="0.572501" fill="#0011FF"/>
<rect x="21.376" y="24.5125" width="0.572501" height="0.572501" fill="#0011FF"/>
<rect x="21.9485" y="25.085" width="0.572501" height="0.572501" fill="#0011FF"/>
<rect x="22.5205" y="25.6572" width="0.572501" height="0.572501" fill="#0011FF"/>
<rect x="21.9485" y="23.9399" width="0.572501" height="0.572501" fill="#0011FF"/>
<rect x="22.5205" y="24.5125" width="0.572501" height="0.572501" fill="#0011FF"/>
<rect x="23.0935" y="25.085" width="0.572501" height="0.572501" fill="#0011FF"/>
<rect x="20.231" y="22.2219" width="0.572501" height="0.572501" fill="#0011FF"/>
<rect x="20.803" y="22.7947" width="0.572501" height="0.572501" fill="#0011FF"/>
<rect x="21.376" y="23.3669" width="0.572501" height="0.572501" fill="#0011FF"/>
<rect x="20.803" y="21.6497" width="0.572501" height="0.572501" fill="#0011FF"/>
<rect x="21.376" y="22.2219" width="0.572501" height="0.572501" fill="#0011FF"/>
<rect x="21.9485" y="22.7947" width="0.572501" height="0.572501" fill="#0011FF"/>
<rect x="22.5205" y="23.3669" width="0.572501" height="0.572501" fill="#0011FF"/>
<rect x="23.0935" y="23.9399" width="0.572501" height="0.572501" fill="#0011FF"/>
<rect x="21.376" y="21.0771" width="0.572501" height="0.572501" fill="#0011FF"/>
<rect x="21.9485" y="21.6497" width="0.572501" height="0.572501" fill="#0011FF"/>
<rect x="22.5205" y="22.2219" width="0.572501" height="0.572501" fill="#0011FF"/>
<rect x="23.0935" y="22.7947" width="0.572501" height="0.572501" fill="#0011FF"/>
<rect x="22.5205" y="21.0771" width="0.572501" height="0.572501" fill="#0011FF"/>
<rect x="23.0935" y="21.6497" width="0.572501" height="0.572501" fill="#0011FF"/>
<rect x="23.0935" y="20.5049" width="0.572501" height="0.572501" fill="#0011FF"/>
</svg>
